<?xml version="1.0" standalone="no"?>
<svg
  width="600"
  height="600"
  viewBox="0 0 600 600"
  xmlns="http://www.w3.org/2000/svg"
>
  <g transform="translate(300,300)">
    <path d="M89,-134.3C119.9,-118.5,152.7,-101.6,180.4,-73C208.2,-44.4,230.8,-4,231.1,37.2C231.4,78.4,209.4,120.4,176.7,146.8C144,173.2,100.6,184,61.1,184.9C21.7,185.8,-13.8,176.9,-49.5,167.1C-85.3,157.3,-121.2,146.8,-160.2,125.6C-199.2,104.4,-241.1,72.5,-252.2,32.8C-263.3,-6.9,-243.5,-54.6,-214.4,-89.4C-185.2,-124.2,-146.7,-146.2,-109.4,-159C-72.1,-171.8,-36,-175.4,-3.5,-169.9C29,-164.5,58,-150,89,-134.3Z" fill="#5f7987" />
  </g>
</svg>
  